<svg xmlns="http://www.w3.org/2000/svg" xmlns:xlink="http://www.w3.org/1999/xlink" viewBox="0 0 20 20" version="1.1" shape-rendering="crispEdges"><path d="M3 20v-3h1v-1h4v-2h4v2h4v1h1v3H3z" fill="#a26d3d"/><path d="M5 15v-1H4v-1H3v-3H2V7h1V4h1V3h1V2h10v1h1v1h1v3h1v3h-1v3h-1v1h-1v1H5z" fill="#ab7b50"/><path d="M5 7h3v2H5V7zm7 0h3v2h-3V7z" fill="#ffffff"/><path d="M6 8h1v1H6V8zm7 1V8h1v1h-1z" fill="#76778b"/><path d="M4 7V5h3v1H5v1H4zm12-2v2h-1V6h-2V5h3zM7 5h1v1h1v1H8V6H7V5zm6 0v1h-1v1h-1V6h1V5h1z" fill-rule="evenodd" fill="#91412d"/><path d="M3 11v2h1v1h1v1h10v-1h1v-1h1v-2H3z" fill="rgba(145,65,45,0.75)"/><path d="M8 12v2h4v-2H8z" fill="#ffffff"/><path d="M3 7h1v1H3V7zm6 0h2v1H9V7zm7 0h1v1h-1V7z" fill-rule="evenodd" fill="#ffc392"/><path d="M4 6v3h1v1h3V9h1V6H4zm1 1v2h3V7H5zm6-1v3h1v1h3V9h1V6h-5zm1 1v2h3V7h-3z" fill-rule="evenodd" fill="#ffb67a"/><path d="M5 7h3v2H5V7zm7 0h3v2h-3V7z" fill-rule="evenodd" fill="#ffffff" opacity=".2"/><path d="M7 7h1v1H7V7zm7 0h1v1h-1V7z" fill-rule="evenodd" fill="#ffffff" opacity=".2"/><path d="M3 20v-3h1v-1h3v1h6v-1h3v1h1v3H3z" fill="#e1e0e0"/><path d="M4 20v-1h1v-3h1v2h8v-2h1v3h1v1H4z" fill="#5a5255"/><path d="M11 20v-1h3v1h-3z" fill="#a5a1a2"/><path d="M3 3v2h1V4h1V3h10v1h1v1h1V3h-1V2H4v1H3z" fill="#cf5d40"/></svg>